<svg width="145" height="147" viewBox="0 0 145 147" fill="none" xmlns="http://www.w3.org/2000/svg">
<path fill-rule="evenodd" clip-rule="evenodd" d="M72.5156 46.6495L64.7411 57.5823L72.5156 68.5151L80.2901 57.5823L72.5156 46.6495ZM138.094 29.6744L107.737 48.7264L76.1951 2.15764C74.5702 -0.243519 70.4611 -0.241134 68.8361 2.15764L37.2945 48.7264L6.93703 29.6744C3.74077 27.6691 -0.679182 30.1752 0.298633 33.4276L11.8855 71.8891H38.603C40.9429 71.8891 42.842 73.4915 42.842 75.4658C42.842 77.4402 40.9429 79.0425 38.603 79.0425H14.0389L17.5376 90.6549C18.0152 92.2382 19.708 93.3493 21.6466 93.3493H123.385C125.323 93.3493 127.016 92.2382 127.494 90.6549L130.992 79.0425H106.428C104.088 79.0425 102.189 77.4402 102.189 75.4658C102.189 73.4915 104.088 71.8891 106.428 71.8891H133.146L144.733 33.4276C145.713 30.168 141.285 27.6739 138.094 29.6744ZM88.8672 59.4231L76.1499 77.3066C74.5108 79.6124 70.5317 79.6267 68.8813 77.3066L56.1641 59.4231C55.3586 58.2905 55.3586 56.8741 56.1641 55.7415L68.8813 37.8579C70.5204 35.5522 74.4995 35.5379 76.1499 37.8579L88.8672 55.7415C89.6726 56.8741 89.6726 58.2905 88.8672 59.4231ZM8.50096 113.614L16.6451 146.454C22.2754 146.029 33.8199 144.899 34.9554 143.769C35.6514 143.077 40.4032 142.764 45.0671 142.456C49.9138 142.137 54.6656 141.823 54.6722 141.097C54.6824 139.958 51.0283 129.193 49.2 123.953L8.50096 113.614ZM128.242 146.588L136.681 113.823L95.8907 123.795C94.0153 129.018 90.2645 139.75 90.2645 140.889C90.2645 141.615 95.0132 141.971 99.8569 142.335C104.518 142.684 109.267 143.04 109.956 143.739C111.082 144.878 122.616 146.113 128.242 146.588Z" fill="white"/>
</svg>
